<?xml version="1.0" encoding="UTF-8"?><svg xmlns="http://www.w3.org/2000/svg" xmlns:xlink="http://www.w3.org/1999/xlink" viewBox="0 0 874.75 179.32"><defs><style>.v{fill:url(#j);}.v,.w,.x,.y{fill-rule:evenodd;}.a`{fill:#0c426a;}.w{fill:url(#h);}.x{fill:url(#f);}.aa{fill:#fed500;}.ab{fill:#1cbbee;}.y{fill:url(#d);}</style><linearGradient id="d" x1="-1046.34" y1="6113.97" x2="-1121.31" y2="6172.54" gradientTransform="translate(1749.58 -9375.92) scale(1.54)" gradientUnits="userSpaceOnUse"><stop offset="0" stop-color="#fedc00"/><stop offset=".9" stop-color="#d2a02a"/><stop offset="1" stop-color="#fedc00"/></linearGradient><linearGradient id="f" x1="-1044.9" y1="6173.77" x2="-1099.39" y2="6173.77" gradientTransform="translate(1749.58 -9375.92) scale(1.54)" gradientUnits="userSpaceOnUse"><stop offset="0" stop-color="#d2a02a"/><stop offset="1" stop-color="#ab5b26"/></linearGradient><linearGradient id="h" x1="-1062.83" y1="6156.47" x2="-987.84" y2="6098.09" gradientTransform="translate(1749.58 -9375.92) scale(1.54)" gradientUnits="userSpaceOnUse"><stop offset="0" stop-color="#00547f"/><stop offset=".9" stop-color="#1da9e1"/><stop offset="1" stop-color="#187cc1"/></linearGradient><linearGradient id="j" x1="-1017.12" y1="6071.89" x2="-1048.97" y2="6096.77" gradientTransform="translate(1749.58 -9375.92) scale(1.54)" gradientUnits="userSpaceOnUse"><stop offset="0" stop-color="#052642"/><stop offset="1" stop-color="#0b4269"/></linearGradient></defs><g id="a"/><g id="b"><g id="c"><path id="e" class="y" d="M62.28,179.15h-7.87c-6.3,0-11.98-2.97-15.75-7.7L1.4,123.6c-.79-1.14-1.4-2.54-1.4-4.11s.61-2.97,1.4-4.11l37.53-48.02c3.76-4.72,9.27-7.7,15.75-7.7h82.93l-47.15,59.13-34.47,43.48,6.3,16.88Z"/><path id="g" class="x" d="M90.97,119.4l-.35-.61-34.64,43.48c-1.4,1.75-2.54,4.11-2.54,8.05s3.76,8.84,11.2,8.84h72.87l-46.54-59.75Z"/><path id="i" class="w" d="M189.21,16.88L182.91,0h7.87c6.3,0,11.98,2.97,15.75,7.7l37.53,47.94c.79,1.14,1.4,2.54,1.4,4.11s-.61,2.97-1.4,4.11l-37.7,47.94c-3.76,4.72-9.27,7.7-15.75,7.7H107.68l47.15-59.22,34.38-43.39Z"/><path id="k" class="v" d="M154.39,59.75l.35,.61,34.38-43.39c1.4-1.75,2.54-4.11,2.54-8.05S187.9,.09,180.46,.09H107.59l46.8,59.66Z"/><path id="l" class="ab" d="M191.13,16.1c1.4-1.75,2.19-3.76,2.19-6.12,0-5.42-4.55-9.97-10.06-9.97h-2.54c5.51,0,9.8,4.55,9.8,10.06,0,2.36-.79,4.55-2.19,6.12l-34.03,43.65-46.54,59.48L191.13,16.1Z"/><path id="m" class="aa" d="M54.23,163.05c-1.4,1.75-2.19,3.76-2.19,6.12,0,5.51,4.55,10.06,10.06,10.06h2.54c-5.51,0-10.06-4.55-10.06-10.06,0-2.36,.79-4.55,2.19-6.12l34.2-43.65,46.54-59.48L54.23,163.05Z"/><path id="n" class="a`" d="M556.34,84.06c-4.72,0-8.49,.61-12.33,1.75-6.3,1.92-11.02,5.34-14.52,10.06-6.12,7.87-5.86,17.32-5.86,17.32v65.61h17.5c1.14,0,1.92-.96,1.92-1.92v-62.28c0-1.14,.17-5.51,2.54-7.7,1.92-1.75,4.55-2.54,7.09-2.97,2.71-.35,5.51-.17,6.91,0h.35c1.4,0,2.36-.79,2.97-1.75l8.92-15.57c-4.72-1.75-9.8-2.71-15.48-2.54"/><path id="o" class="a`" d="M504.82,84.06c-4.72,0-8.66,.61-12.33,1.75-6.3,1.92-11.02,5.34-14.52,10.06-6.12,7.87-5.86,17.32-5.86,17.32v65.61h17.5c1.14,0,1.92-.96,1.92-1.92v-62.28c0-1.14,.17-5.51,2.54-7.7,1.92-1.75,4.55-2.54,7.09-2.97,2.71-.35,5.51-.17,6.91,0h.35c1.14,0,2.36-.79,2.97-1.75l9.27-15.75c-5.16-1.57-10.06-2.54-15.83-2.36"/><path id="p" class="a`" d="M352,154.57c-.61-.79-1.75-1.4-2.97-1.4-.61,0-1.4,.17-1.75,.61-5.86,3.5-12.95,5.69-20.47,5.69-22.04,0-39.89-17.84-39.89-40.06s17.84-39.89,39.89-39.89c7.44,0,14.52,1.92,20.47,5.69,.61,.35,1.14,.61,1.92,.61,1.14,0,2.19-.61,2.97-1.4l10.06-12.95c-9.8-7.26-22.04-11.55-35.34-11.55-32.98,0-59.75,26.68-59.75,59.75s26.77,59.66,59.75,59.66c13.12,0,25.37-4.29,35.34-11.55l-10.23-13.21Z"/><path id="q" class="a`" d="M617.4,101.56c12.95,0,23.97,8.49,27.9,20.03h-55.63c3.94-11.55,14.96-20.03,27.73-20.03m0-18.89c-26.5,0-48.11,21.61-48.11,48.11s21.61,47.94,48.11,48.11h1.4c10.41,0,18.89-1.4,30.09-8.66l1.75-1.14s-9.8-12.77-10.06-12.95c-.61-.79-1.75-1.4-2.71-1.4-.61,0-1.14,.17-1.75,.35-2.54,1.4-10.23,4.72-18.63,4.72-12.77,0-23.53-8.05-27.73-19.42h73.74c1.14,0,1.92-.96,1.92-1.92l.17-5.51v-2.19c.17-26.5-21.43-48.11-48.2-48.11h0Z"/><path id="r" class="a`" d="M678.9,179.15c-1.14,0-1.92-.79-1.92-1.92V87.83c0-.96,.79-1.92,1.92-1.92h15.48c1.14,0,1.92,.96,1.92,1.92v89.4c0,1.14-.96,1.92-1.92,1.92h-15.48Z"/><path id="s" class="a`" d="M413.93,101.21c-16.1,0-29.04,12.95-29.04,29.04s12.95,29.04,29.04,29.04,29.04-12.95,29.04-29.04-12.95-29.04-29.04-29.04m0,77.94c-26.94,0-48.72-21.78-48.72-48.72s21.78-48.72,48.72-48.72,48.72,21.78,48.72,48.72-21.87,48.72-48.72,48.72Z"/><path id="t" class="a`" d="M754.56,102c-15.92,0-28.87,12.95-28.87,28.87s12.95,28.69,28.87,28.69,28.87-12.95,28.87-28.69-12.95-28.87-28.87-28.87m0,76.98c-26.68,0-48.29-21.61-48.29-48.29s21.61-48.29,48.29-48.29,48.29,21.61,48.29,48.29-21.61,48.29-48.29,48.29Z"/><path id="u" class="a`" d="M857.69,123.34c-3.32-1.57-7.7-2.54-12.33-3.76-6.91-1.75-13.38-2.19-15.75-5.86-2.19-3.5-.96-7.44,1.92-9.62,6.91-4.72,16.1-2.71,21.26-.35,.96,.35,4.72,2.54,4.72,2.54,.61,.35,1.14,.61,1.75,.61,1.14,0,2.19-.61,2.97-1.57l9.8-12.6-1.57-1.4c-.96-.79-2.36-1.57-3.76-2.36-2.97-1.57-11.81-6.65-24.58-6.65h-1.14c-28.08,.61-32.02,20.47-32.02,27.47,0,10.58,5.51,18.28,13.73,23.01,6.65,3.76,19.07,5.86,25.37,7.87,3.32,.96,5.69,3.32,6.65,5.51,.35,.96,.61,1.92,.61,3.15,.17,3.76-1.75,7.87-7.26,9.62-6.12,1.75-15.48,.96-24.14-5.69-.17-.17-1.14-.96-1.57-1.14-.35-.17-.79-.17-1.4-.17-1.14,0-2.19,.61-2.97,1.57-.17,.17-9.62,12.33-9.62,12.33,0,0,3.32,2.71,4.55,3.5,5.51,4.11,15.31,9.62,28.08,9.62h.35c27.12,0,33.42-19.24,33.42-29.83s-6.47-21.08-17.06-25.81"/></g></g></svg>